<svg xmlns="http://www.w3.org/2000/svg" viewBox="0 0 100 100" role="img" aria-label="Lockerlink logo"><rect width="100" height="100" rx="22" fill="#9db030"/><rect x="13" y="12" width="34" height="76" rx="7.5" fill="#fbfdf5"/><rect x="20" y="20" width="20" height="3.2" rx="1.6" fill="#526100"/><rect x="20" y="26.5" width="20" height="3.2" rx="1.6" fill="#526100"/><rect x="20" y="33" width="20" height="3.2" rx="1.6" fill="#526100"/><rect x="20" y="73" width="20" height="3.2" rx="1.6" fill="#526100"/><rect x="20" y="79.5" width="20" height="3.2" rx="1.6" fill="#526100"/><rect x="53" y="12" width="34" height="76" rx="7.5" fill="#fbfdf5"/><rect x="60" y="20" width="20" height="3.2" rx="1.6" fill="#526100"/><rect x="60" y="26.5" width="20" height="3.2" rx="1.6" fill="#526100"/><rect x="60" y="33" width="20" height="3.2" rx="1.6" fill="#526100"/><rect x="60" y="73" width="20" height="3.2" rx="1.6" fill="#526100"/><rect x="60" y="79.5" width="20" height="3.2" rx="1.6" fill="#526100"/><rect x="28" y="47.5" width="27" height="14" rx="7" fill="none" stroke="#526100" stroke-width="4.6" stroke-linecap="round" stroke-linejoin="round"/><rect x="45" y="47.5" width="27" height="14" rx="7" fill="none" stroke="#526100" stroke-width="4.6" stroke-linecap="round" stroke-linejoin="round"/><path d="M48.6 47.5 A7 7 0 0 1 55 54.5" fill="none" stroke="#526100" stroke-width="4.6" stroke-linecap="round" stroke-linejoin="round"/></svg>
